PathFileType	4	(X/Y/Z)	D:\TRACE\v60_Jaco2_6-2-23\BothDRS_Motion2_2-platform.trc
DataRate	CameraRate	NumFrames	NumMarkers	Units	OrigDataRate	OrigDataStartFrame	OrigNumFrames
100.00	100.00	      71	5	mm	100.00	4688	      7500
Frame#	Time	Left_Front			Right_Front			Left_Aft			Right_Aft			Post			
		X1	Y1	Z1	X2	Y2	Z2	X3	Y3	Z3	X4	Y4	Z4	X5	Y5	Z5	

4688	46.870	-850.83099	-40.55836	-648.47577	719.10571	-39.13310	-654.09711	-758.80127	41.21364	483.78287	683.10706	41.77692	492.68030	-64.67949	1231.20740	-1073.40369	
4689	46.880	-850.46851	-41.58150	-648.90497	719.54523	-40.20580	-654.20673	-758.40680	41.70351	483.49487	683.85059	42.39424	492.34506	-64.35928	1229.78113	-1075.56055	
4690	46.890	-850.25732	-42.22142	-649.00769	719.92236	-40.60973	-654.17548	-758.01520	42.36053	483.41281	684.26349	43.14262	492.19101	-64.12556	1228.31934	-1077.54858	
4691	46.900	-850.01147	-43.26491	-648.97015	720.43011	-41.52663	-654.23279	-757.75995	43.15018	483.12784	684.39612	43.66397	491.86816	-63.92270	1226.96472	-1079.69800	
4692	46.910	-849.72449	-44.03963	-648.99896	720.72656	-42.45412	-654.44104	-757.45514	43.62799	482.86401	684.75037	44.27734	491.73206	-63.45335	1225.53699	-1081.45374	
4693	46.920	-849.30743	-44.97105	-648.95270	720.90802	-43.38650	-654.82037	-757.16870	44.11346	482.62961	685.27100	44.98618	491.80432	-62.64167	1223.98193	-1083.45544	
4694	46.930	-848.69293	-45.96170	-649.04297	721.33557	-44.00503	-654.70807	-756.73840	44.48454	482.51428	685.52521	45.31548	491.54456	-62.43708	1223.11987	-1085.23059	
4695	46.940	-848.08405	-46.64330	-649.30493	721.68744	-44.70174	-654.84717	-756.22931	44.99335	482.30850	685.83466	45.72678	491.39017	-62.48016	1221.90637	-1086.52795	
4696	46.950	-848.07678	-47.08917	-649.54004	721.94659	-45.10079	-654.93500	-755.96985	45.30939	482.07736	686.45630	46.18232	491.16003	-61.99789	1220.77112	-1088.36963	
4697	46.960	-847.87756	-47.40342	-649.50861	722.44641	-45.78318	-654.96509	-755.52582	45.86979	481.87289	687.01807	46.73483	490.99905	-61.40953	1219.81018	-1089.97644	
4698	46.970	-847.52716	-47.93699	-649.65729	723.06726	-46.41669	-655.12823	-755.04797	46.18587	481.72092	687.56134	47.18790	490.88724	-60.51693	1218.78662	-1091.59106	
4699	46.980	-846.81085	-48.78207	-649.68463	723.48792	-47.07184	-655.38678	-754.61243	46.45584	481.59460	687.63507	47.39112	490.74026	-60.62094	1217.98145	-1092.58923	
4700	46.990	-846.09601	-49.35271	-649.69287	724.00439	-47.45356	-655.43951	-754.09393	46.73129	481.39520	688.08203	47.69778	490.62506	-60.14606	1217.26599	-1093.92566	
4701	47.000	-845.53241	-49.81675	-649.77356	724.41382	-47.81461	-655.33374	-753.53217	47.18713	481.28845	688.52533	47.93318	490.47235	-59.61214	1216.45190	-1095.29932	
4702	47.010	-845.16003	-50.04251	-649.79993	724.92151	-48.19595	-655.32312	-753.25000	47.46305	481.17673	689.22546	48.31031	490.31775	-59.09837	1215.67981	-1096.34424	
4703	47.020	-844.69525	-50.40469	-650.07904	725.50641	-48.61382	-655.46014	-752.82214	47.72636	481.01355	689.84363	48.75611	490.15436	-58.34706	1214.81311	-1097.59802	
4704	47.030	-844.19794	-50.87142	-650.34302	726.06146	-48.81040	-655.52502	-751.87476	47.94908	480.85248	690.19696	49.00166	489.98788	-57.82932	1214.13257	-1098.27002	
4705	47.040	-843.72131	-51.24426	-650.13672	726.52106	-49.32505	-655.73206	-751.34515	48.08870	480.69278	690.74805	49.30302	489.84265	-57.45216	1213.62231	-1099.52563	
4706	47.050	-842.77972	-51.62418	-650.41968	727.35724	-49.86678	-655.71686	-750.78845	48.29506	480.60486	691.48761	49.47485	489.72107	-57.25589	1213.16992	-1100.27441	
4707	47.060	-841.80743	-52.20810	-650.41736	727.97058	-50.01363	-655.53625	-750.33435	48.53434	480.50342	692.05975	49.60159	489.62790	-55.97033	1212.74182	-1101.20764	
4708	47.070	-841.58032	-51.89176	-650.03125	728.42346	-50.07293	-655.48389	-749.71417	48.74689	480.37668	692.56525	49.84189	489.62314	-55.59725	1212.19690	-1101.70862	
4709	47.080	-841.11334	-52.09483	-650.35889	728.99054	-50.53403	-655.62115	-749.01611	48.94387	480.33923	693.32489	50.13905	489.64362	-55.01968	1211.79553	-1102.38586	
4710	47.090	-840.74451	-52.61942	-650.61890	729.83490	-51.17676	-655.78790	-748.51605	49.00331	480.31631	694.06525	50.22561	489.50934	-54.55835	1211.25525	-1102.97363	
4711	47.100	-839.85034	-52.99739	-650.55420	730.42517	-51.27907	-655.99115	-747.87830	49.22411	480.26782	694.65497	50.30732	489.40048	-53.77675	1210.89575	-1103.32104	
4712	47.110	-838.82861	-53.14961	-650.51855	731.09021	-51.36681	-656.00873	-747.02185	49.40953	480.21555	695.17279	50.34377	489.29688	-52.71430	1210.32507	-1103.97681	
4713	47.120	-838.20459	-53.14875	-650.43134	731.91779	-51.55387	-655.87128	-746.51630	49.68575	480.08783	695.87817	50.40818	489.34521	-52.18826	1210.05859	-1103.91882	
4714	47.130	-837.64642	-53.04687	-650.32416	732.61395	-51.61966	-655.84161	-746.20575	50.00544	480.20215	696.70917	50.62623	489.33832	-51.68719	1209.98425	-1104.54749	
4715	47.140	-836.98621	-53.10789	-650.54749	733.09735	-51.60220	-656.01624	-745.19897	50.08300	479.68375	697.48016	50.65884	489.29626	-50.52823	1209.78296	-1105.20435	
4716	47.150	-836.13837	-53.36646	-650.69202	734.13721	-51.45836	-655.94104	-744.03760	49.32823	479.81906	698.14117	50.71312	489.21371	-49.97400	1209.86523	-1104.98157	
4717	47.160	-835.33032	-53.43615	-650.62054	734.70184	-51.58901	-656.04230	-742.80499	48.65114	479.92984	699.06384	50.58001	489.23938	-49.24271	1209.99475	-1104.91809	
4718	47.170	-834.38800	-52.98050	-650.68268	735.59277	-51.55544	-656.06543	-742.26453	48.77840	479.86292	699.71167	50.49261	489.35052	-48.60120	1210.16162	-1104.74756	
4719	47.180	-833.79974	-52.61316	-650.58313	736.35181	-51.36583	-655.86597	-741.63361	49.08060	480.05762	700.47009	50.45772	489.32324	-47.47884	1210.45117	-1104.64685	
4720	47.190	-833.11945	-52.61745	-650.52313	737.12079	-50.94336	-655.88428	-740.78125	49.17467	480.25064	701.38812	50.23337	489.22443	-46.69103	1210.78613	-1104.77490	
4721	47.200	-832.05084	-52.27174	-650.65479	738.08026	-50.70110	-655.78540	-740.14990	48.87569	480.27664	702.03217	50.05237	489.41370	-45.84985	1211.35901	-1104.74976	
4722	47.210	-831.13782	-51.95112	-650.60669	739.07330	-50.42474	-655.95526	-739.27112	48.62306	480.36255	702.91412	49.79142	489.45917	-45.39083	1211.85535	-1104.42175	
4723	47.220	-830.29352	-51.68805	-650.36139	739.73669	-50.10594	-655.90521	-738.45801	48.60041	480.46060	704.77203	50.02052	490.27490	-44.46919	1212.66162	-1103.85754	
4724	47.230	-829.57990	-51.12419	-650.42255	740.61273	-49.54642	-655.64655	-737.69391	48.29829	480.51483	705.09192	49.48932	490.27829	-42.96416	1213.27161	-1103.46240	
4725	47.240	-828.69666	-50.66692	-650.17596	741.62445	-48.75832	-655.53552	-736.89264	48.06032	480.70154	705.61591	49.01285	490.14096	-42.36620	1213.85034	-1103.07202	
4726	47.250	-827.76379	-50.31289	-650.13947	742.41858	-48.52576	-655.69183	-736.12012	47.97583	480.91751	706.78058	48.51434	490.22314	-41.44296	1214.87268	-1102.33008	
4727	47.260	-826.85724	-49.79520	-650.06458	743.50494	-48.19140	-655.38391	-734.83026	47.10899	480.87430	707.54297	48.27199	490.35562	-40.70746	1215.48816	-1101.43359	
4728	47.270	-825.97607	-49.30813	-650.09668	744.53583	-47.22455	-655.32819	-733.70123	46.55186	480.88593	708.47247	47.81649	490.46317	-39.57994	1216.37195	-1100.34375	
4729	47.280	-824.90619	-48.46783	-650.11426	745.28778	-47.00191	-655.35376	-732.63043	46.36653	481.10666	709.30548	47.53191	490.71964	-38.57420	1217.32361	-1099.47192	
4730	47.290	-823.95618	-48.12135	-650.17139	746.31873	-46.45529	-655.29095	-731.82318	45.82610	481.37888	710.30444	47.03783	490.83163	-37.80367	1218.36584	-1098.44287	
4731	47.300	-823.08374	-47.42474	-649.91974	747.27875	-45.67006	-655.20502	-730.96399	45.59488	481.57828	711.33319	46.62819	491.06296	-36.87217	1219.30457	-1097.38306	
4732	47.310	-822.13245	-46.96537	-649.67847	747.85449	-45.27874	-655.23358	-729.99274	45.27085	481.74951	712.31763	46.17709	491.15515	-35.99520	1220.37476	-1095.91907	
4733	47.320	-821.10358	-46.33115	-649.65723	749.09808	-44.50855	-655.13391	-729.06726	44.67110	481.96463	713.32428	45.84595	491.39148	-34.69544	1221.25793	-1094.57263	
4734	47.330	-819.99951	-45.74495	-649.61731	750.11743	-43.96661	-655.04675	-727.95532	44.15078	482.10361	714.44043	45.41763	491.44290	-33.96764	1222.60144	-1093.02490	
4735	47.340	-818.91162	-44.76777	-649.58875	750.90918	-43.55233	-654.97992	-727.02240	43.91047	482.30826	715.22717	44.92916	491.75674	-33.17095	1223.65417	-1091.27124	
4736	47.350	-818.10730	-44.11089	-649.33752	752.20752	-42.49021	-654.54309	-726.16467	43.54856	482.49109	716.55286	44.43764	492.08173	-31.92163	1224.86108	-1089.65662	
4737	47.360	-817.23163	-43.22824	-649.21417	753.00476	-41.79544	-654.90405	-724.95941	43.17379	482.78586	717.44025	43.89455	492.33975	-30.56286	1226.06567	-1087.59790	
4738	47.370	-815.83417	-42.61331	-649.13892	754.10291	-40.77034	-654.47534	-724.31262	42.81282	483.03677	718.42395	43.30954	492.48672	-29.65945	1227.50684	-1085.61987	
4739	47.380	-814.77179	-41.76468	-649.16614	754.88495	-40.27622	-654.53363	-723.73999	42.76529	483.15707	719.65820	42.81350	492.85062	-28.51926	1228.88586	-1083.60132	
4740	47.390	-813.87787	-40.63711	-649.06622	755.98871	-39.22303	-654.60962	-721.04254	40.11117	483.66800	720.42310	42.13441	493.03662	-27.82150	1230.39063	-1081.46899	
4741	47.400	-812.93066	-39.79068	-648.74664	756.88519	-38.27635	-654.33124	-720.94330	40.71801	483.11099	721.58612	41.46004	493.45596	-26.93182	1231.74731	-1079.13647	
4742	47.410	-811.61133	-38.98941	-648.58887	757.80011	-37.64868	-654.16010	-719.96295	40.30673	483.37338	722.57776	40.78099	493.59702	-25.65266	1233.38818	-1076.97400	
4743	47.420	-810.64172	-38.36808	-648.35095	759.12433	-36.96991	-654.05573	-718.93506	39.99363	483.63394	723.81543	40.16867	493.99789	-24.54224	1235.12683	-1074.46802	
4744	47.430	-809.67126	-37.14263	-648.29303	760.52521	-35.19400	-653.58679	-718.10205	39.33525	483.93799	725.16370	39.59224	494.60172	-23.48877	1236.84644	-1072.00537	
4745	47.440	-808.50635	-35.76861	-647.98438	761.58966	-34.10247	-653.49152	-716.87463	38.42937	484.25195	725.74121	38.64836	494.13065	-22.28778	1238.74426	-1069.41858	
4746	47.450	-807.18384	-34.87518	-647.89667	762.82471	-32.86856	-653.28894	-715.85840	37.88047	484.47275	726.75079	37.90254	494.47736	-21.30538	1240.68567	-1066.61108	
4747	47.460	-806.09027	-33.68821	-647.69263	763.72778	-31.96900	-653.21918	-714.69775	37.06815	484.81900	727.89465	36.86190	494.66321	-20.31122	1242.58093	-1063.80945	
4748	47.470	-805.14880	-32.18832	-647.38171	765.02020	-30.37108	-652.68823	-713.70020	36.29869	484.96375	729.23553	36.26463	495.04651	-18.97019	1244.43042	-1061.09106	
4749	47.480	-804.27051	-31.01400	-647.21246	766.07178	-29.20682	-652.49426	-712.62976	35.52116	485.38638	730.17188	35.45827	495.34406	-17.73068	1246.30127	-1057.90894	
4750	47.490	-802.81409	-30.16189	-647.02704	766.97424	-28.36408	-652.51855	-711.17224	34.54071	485.70618	731.42651	34.48149	495.75342	-17.20192	1248.56140	-1054.79553	
4751	47.500	-801.71350	-28.73408	-646.93231	768.41284	-26.92383	-652.07025	-710.41455	33.74311	485.86615	731.86798	33.13165	496.29410	-16.10208	1250.19788	-1051.54700	
4752	47.510	-800.59308	-27.51169	-646.59589	769.07495	-25.87260	-652.11426	-709.28387	32.94621	486.17017	733.18750	32.80451	496.74844	-14.78792	1252.07227	-1048.29919	
4753	47.520	-799.61035	-26.62745	-646.38495	770.77380	-24.57424	-651.69568	-708.00513	32.20607	486.69379	734.83710	31.98281	496.92783	-13.04899	1254.06091	-1044.89587	
4754	47.530	-798.20410	-25.12637	-646.22723	772.04718	-23.57727	-651.48010	-706.43079	30.67211	487.65207	735.84009	31.20188	497.06683	-12.26099	1255.99548	-1041.71143	
4755	47.540	-797.26764	-23.87536	-646.01141	772.54242	-22.13178	-651.39929	-705.14758	29.85315	488.10437	737.20355	30.44409	497.45578	-10.98590	1258.00928	-1038.13733	
4756	47.550	-796.17474	-22.80738	-645.71753	774.00208	-20.86759	-651.06628	-704.09790	29.13159	488.31769	738.14368	29.51771	497.82388	-9.94901	1260.01587	-1034.01172	
4757	47.560	-794.96240	-21.39064	-645.53851	775.11804	-19.66808	-651.09924	-702.88055	28.20173	488.72174	739.35834	28.62900	498.08139	-9.41669	1262.23254	-1030.62988	
4758	47.570	-793.73224	-20.22062	-645.36707	776.22406	-18.30425	-650.52240	-701.81628	27.27209	489.03186	740.38708	27.69140	498.40030	-8.17001	1264.13403	-1026.77319	
